<svg version="1.1" id="Layer_1" xmlns="http://www.w3.org/2000/svg" xmlns:xlink="http://www.w3.org/1999/xlink" x="0px" y="0px"
	 width="100%" viewBox="0 0 1024 1024" enable-background="new 0 0 1024 1024" xml:space="preserve">
<path fill="#000000" opacity="1.000000" stroke="none" 
	d="
M416.999268,559.303162 
	C390.218567,563.255493 364.833893,545.385132 358.094147,518.181702 
	C350.811310,488.786163 369.889832,457.742706 399.008728,451.607880 
	C427.710938,445.560852 457.158112,466.726288 461.357361,496.010498 
	C463.260193,509.280396 460.969269,521.463379 454.343628,532.969116 
	C451.350037,538.167603 452.320068,541.178284 458.017548,543.572632 
	C460.304596,544.533752 462.755707,545.149536 465.177887,545.732422 
	C468.058777,546.425598 468.803406,547.941833 468.116394,550.836487 
	C465.882507,560.248718 465.976166,560.229858 456.612335,557.951294 
	C451.594543,556.730286 446.500641,555.805908 443.149292,551.215088 
	C441.533966,549.002258 439.685242,549.367859 437.549133,550.806946 
	C431.415314,554.939270 424.730133,557.857849 416.999268,559.303162 
M381.384888,480.895538 
	C379.847351,483.655426 378.077484,486.312988 376.809723,489.191650 
	C368.212250,508.713623 376.930725,532.853149 395.637054,541.580994 
	C406.645386,546.717163 420.678619,545.038208 428.356903,537.608948 
	C427.737488,535.019348 425.501587,533.652100 423.800293,531.905457 
	C414.177917,522.026489 415.092529,525.354370 423.844849,515.844910 
	C425.964813,513.541504 427.676392,513.708862 429.586121,515.954285 
	C432.480133,519.356934 435.429382,522.712585 438.436310,526.181885 
	C448.562012,514.115906 447.842743,488.587646 431.856689,474.892578 
	C416.586792,461.811096 395.809357,464.032745 381.384888,480.895538 
z"/>
<path fill="#000000" opacity="1.000000" stroke="none" 
	d="
M510.078094,552.985291 
	C509.145020,557.285400 506.862061,558.608215 502.805695,558.474915 
	C488.956238,558.019714 492.271088,560.358337 487.854767,547.646240 
	C481.515564,529.399170 475.494965,511.041351 469.349335,492.727142 
	C468.776825,491.021057 468.283356,489.288452 467.611359,487.108154 
	C472.503174,485.433136 477.118408,485.871674 481.663696,486.403259 
	C484.380493,486.720978 484.469025,489.455963 485.087738,491.426483 
	C489.425415,505.240540 493.670380,519.083740 497.966553,532.910889 
	C498.441925,534.440735 499.053467,535.928284 499.960999,538.422668 
	C505.305878,522.181763 510.582611,506.976532 515.218323,491.578369 
	C516.688904,486.693695 519.470215,486.003876 523.656433,485.992828 
	C527.754333,485.982025 530.815247,486.275085 532.299500,491.269592 
	C536.282043,504.670898 540.880737,517.889221 545.255371,531.173523 
	C545.823181,532.897949 546.512329,534.582520 547.294495,536.686951 
	C549.138245,535.308472 549.300598,533.502502 549.802429,531.890991 
	C553.960693,518.537903 558.306091,505.238525 562.166443,491.799835 
	C563.429749,487.401855 565.784973,486.131775 569.987671,486.042938 
	C580.467773,485.821411 580.476196,485.694275 577.222717,495.406342 
	C570.875916,514.351990 564.418335,533.261536 558.233093,552.259705 
	C556.804993,556.646118 554.879089,558.756165 549.820312,558.511169 
	C537.649292,557.921631 540.223083,560.121582 536.171265,548.576660 
	C531.995117,536.677185 527.987305,524.718689 523.745178,512.316345 
	C519.105774,526.124512 514.657654,539.363159 510.078094,552.985291 
z"/>
<path fill="#000000" opacity="1.000000" stroke="none" 
	d="
M758.997803,486.705597 
	C781.312622,479.443054 803.154358,493.760132 805.362610,516.731567 
	C807.107910,534.886719 800.371277,549.375916 786.552490,556.443115 
	C775.131531,562.284058 763.817688,561.891968 752.860718,554.980408 
	C751.918152,554.385925 751.219055,553.283203 749.167664,553.492004 
	C749.167664,561.667786 749.162659,569.912231 749.168884,578.156616 
	C749.176636,588.396606 747.021545,590.068420 736.739136,588.134644 
	C734.106323,587.639587 733.659241,586.048279 733.661682,583.863342 
	C733.669250,577.034546 733.647156,570.205811 733.645325,563.377014 
	C733.638977,540.059021 733.581299,516.740662 733.709473,493.423370 
	C733.723694,490.827362 731.978271,487.117523 736.663391,486.161835 
	C742.465027,484.978363 745.366882,486.113281 747.727112,490.675354 
	C747.952087,491.110291 748.301270,491.480957 748.819885,492.193390 
	C752.076660,490.408356 755.347595,488.615601 758.997803,486.705597 
M752.253479,537.124146 
	C760.298340,548.891907 775.783142,549.817444 784.471069,539.035522 
	C789.633240,532.629028 790.713806,525.194092 789.604492,517.340088 
	C788.111816,506.771332 779.763489,499.156189 769.783203,499.023773 
	C758.893677,498.879242 751.302063,505.144287 749.625122,516.445618 
	C748.623413,523.196350 748.656128,530.080383 752.253479,537.124146 
z"/>
<path fill="#000000" opacity="1.000000" stroke="none" 
	d="
M332.707428,543.870850 
	C333.333252,543.543884 333.632538,543.395752 333.916443,543.222412 
	C340.856445,538.983826 340.687195,539.150757 346.390106,544.905762 
	C349.452026,547.995667 348.641022,549.875305 345.603546,551.966980 
	C333.280365,560.453003 319.980042,563.237793 305.858215,557.591370 
	C290.947235,551.629395 282.908142,539.830322 282.141205,524.104614 
	C281.410004,509.111847 287.550781,496.670349 300.957733,489.029205 
	C312.846985,482.253143 324.993011,482.990601 336.408600,490.455444 
	C345.132050,496.159912 348.495209,505.336823 350.211182,515.013000 
	C352.747498,529.314758 352.527557,529.358948 337.987793,529.363953 
	C326.994904,529.367798 316.001862,529.329773 305.009216,529.377808 
	C303.251556,529.385498 301.337158,528.811951 299.780945,530.173035 
	C301.125336,542.861206 317.558960,549.822388 332.707428,543.870850 
M305.245270,503.709076 
	C302.044678,506.901428 299.605255,510.472900 299.109436,515.632996 
	C310.104309,515.632996 320.699707,515.623352 331.295105,515.638611 
	C334.626770,515.643372 334.536987,513.834900 333.875610,511.328644 
	C330.685883,499.241150 316.908478,495.241302 305.245270,503.709076 
z"/>
<path fill="#000000" opacity="1.000000" stroke="none" 
	d="
M711.429321,540.730347 
	C717.582764,538.626038 718.790039,544.350464 721.351013,547.055298 
	C723.901306,549.748718 719.935730,551.235962 718.211182,552.529236 
	C703.491028,563.568420 682.476318,562.922852 668.721619,551.168701 
	C655.117371,539.543091 651.740479,519.835327 660.541687,503.429840 
	C667.665955,490.150177 681.502747,482.881012 695.768005,484.923431 
	C709.795471,486.931793 719.761047,496.563416 723.139465,511.672089 
	C724.041992,515.708496 724.315491,519.882690 724.955811,523.981445 
	C725.554016,527.810425 724.181396,529.444153 720.125000,529.400696 
	C706.312622,529.252747 692.497620,529.330078 678.683777,529.362793 
	C676.883972,529.367065 675.026184,528.985657 673.291443,529.811523 
	C674.664368,545.133423 695.446716,551.212158 711.429321,540.730347 
M684.792908,499.982178 
	C678.341309,502.863403 674.423645,507.833649 672.462585,514.446289 
	C673.952332,515.727051 675.501709,515.584229 676.956909,515.591980 
	C685.739685,515.638672 694.523315,515.678284 703.305725,515.610413 
	C707.797302,515.575684 708.512451,514.407043 707.016357,510.110016 
	C704.062988,501.627472 696.333008,497.867004 684.792908,499.982178 
z"/>
<path fill="#000000" opacity="1.000000" stroke="none" 
	d="
M650.318909,524.923340 
	C650.584290,529.473450 647.754089,529.343933 644.983765,529.341980 
	C631.653564,529.332642 618.323303,529.320068 604.993225,529.352051 
	C603.023560,529.356812 600.998474,528.969055 598.990967,529.866211 
	C598.004822,532.258972 599.591797,533.995361 600.715698,535.710571 
	C608.355164,547.369873 623.819397,550.055664 635.449707,541.851868 
	C636.961060,540.785706 638.394531,538.318115 640.536560,540.234802 
	C643.221191,542.637024 646.481262,544.729126 647.674744,548.341003 
	C648.073914,549.549133 646.472839,550.635559 645.413208,551.397339 
	C632.079712,560.982727 617.667236,563.758850 602.609619,556.416260 
	C588.060547,549.321655 581.014465,537.063049 581.592712,520.804016 
	C582.575623,493.170135 609.172302,476.420654 632.580139,488.584900 
	C639.100159,491.973114 643.347168,497.438965 646.130432,504.052277 
	C648.864380,510.548462 650.354065,517.359680 650.318909,524.923340 
M600.333679,508.896698 
	C599.519836,510.812286 597.856445,512.516052 599.061768,515.682739 
	C608.916687,515.682739 619.009644,515.722046 629.101990,515.665405 
	C633.849487,515.638733 634.422791,514.765198 632.740356,510.313568 
	C630.375732,504.057037 626.057983,500.080383 619.259277,499.178253 
	C611.070618,498.091766 605.073608,501.523895 600.333679,508.896698 
z"/>
<path fill="#000000" opacity="1.000000" stroke="none" 
	d="
M616.362061,578.161377 
	C610.623169,576.078247 612.982910,571.683472 613.139832,568.243347 
	C613.293762,564.868286 616.372864,564.941772 618.884033,564.935669 
	C650.528809,564.858948 682.174072,564.891846 713.817932,564.687500 
	C719.568054,564.650391 719.128906,568.151245 719.200378,571.958618 
	C719.273621,575.864502 718.954285,578.377197 713.721924,578.544800 
	C681.411743,579.579773 649.120178,577.927917 616.362061,578.161377 
z"/>
</svg>